<?xml version="1.0" encoding="iso-8859-1"?>
<!-- Generator: Adobe Illustrator 16.0.0, SVG Export Plug-In . SVG Version: 6.00 Build 0)  -->
<!DOCTYPE svg PUBLIC "-//W3C//DTD SVG 1.1//EN" "http://www.w3.org/Graphics/SVG/1.1/DTD/svg11.dtd">
<svg version="1.1" id="Capa_1" xmlns="http://www.w3.org/2000/svg" xmlns:xlink="http://www.w3.org/1999/xlink" x="0px" y="0px"
	 width="741.263px" height="741.264px" viewBox="0 0 741.263 741.264" style="enable-background:new 0 0 741.263 741.264;"
	 xml:space="preserve">
<g>
	<g>
		<g>
			<path fill="#e6e6ff" d="M337.14,23.165c-6.395,0-11.583-5.188-11.583-11.583C325.557,5.188,330.745,0,337.14,0h299.184
				c11.052,0,21.089,4.561,28.4,11.848l0.048,0.048c7.312,7.311,11.848,17.421,11.848,28.425v330.311v330.311
				c0,11.052-4.561,21.161-11.848,28.474l-0.796,0.724c-7.239,6.877-17.012,11.124-27.652,11.124H148.036
				c-11.027,0-21.138-4.561-28.449-11.848l-0.024,0.024c-7.287-7.288-11.823-17.398-11.823-28.475V370.607V40.321
				c0-11.076,4.536-21.186,11.823-28.473l0.796-0.724C127.598,4.247,137.371,0,148.036,0h129.262
				c6.395,0,11.583,5.188,11.583,11.582c0,6.395-5.188,11.583-11.583,11.583H148.036c-4.464,0-8.566,1.737-11.606,4.536
				l-0.482,0.507c-3.089,3.113-5.043,7.408-5.043,12.113v330.311v330.311c0,4.682,1.955,8.977,5.043,12.09l-0.024,0.022l0.024,0.024
				c3.064,3.089,7.359,4.995,12.089,4.995h488.287c4.464,0,8.565-1.737,11.582-4.537l0.482-0.53
				c3.111-3.112,5.066-7.408,5.066-12.089V370.607V40.321c0-4.681-1.931-9-5.02-12.089l-0.048-0.048
				c-3.064-3.064-7.359-4.995-12.064-4.995H337.14V23.165z"/>
			<path fill="#e6e6ff" d="M265.716,11.582C265.716,5.188,270.928,0,277.298,0c6.395,0,11.583,5.188,11.583,11.582v488.287
				c0,6.395-5.188,11.583-11.583,11.583c-4.126,0-7.746-2.172-9.796-5.43l-33.299-44.374l-33.854,45.121
				c-3.813,5.093-11.076,6.13-16.143,2.316c-3.017-2.268-4.609-5.719-4.609-9.241h-0.048V71.424c0-6.395,5.188-11.583,11.583-11.583
				c6.394,0,11.582,5.188,11.582,11.583v393.771l22.127-29.535l0.121-0.168c0.651-0.869,1.399-1.643,2.316-2.317
				c5.091-3.812,12.33-2.773,16.167,2.317l22.271,29.679V11.582L265.716,11.582z"/>
			<path fill="#e6e6ff" d="M567.313,56.463c0-6.395,5.212-11.583,11.582-11.583c6.396,0,11.582,5.188,11.582,11.583v628.335
				c0,6.396-5.188,11.582-11.582,11.582s-11.582-5.188-11.582-11.582V56.463L567.313,56.463z"/>
			<path fill="#e6e6ff" d="M578.895,382.214c-6.395,0-11.582-5.188-11.582-11.583c0-6.395,5.212-11.583,11.582-11.583h41.286
				c6.394,0,11.582,5.188,11.582,11.583c0,6.395-5.188,11.583-11.582,11.583H578.895L578.895,382.214z M578.895,497.095
				c-6.395,0-11.582-5.188-11.582-11.582c0-6.394,5.212-11.582,11.582-11.582h41.286c6.394,0,11.582,5.188,11.582,11.582
				c0,6.395-5.188,11.582-11.582,11.582H578.895L578.895,497.095z M578.895,612c-6.395,0-11.582-5.188-11.582-11.582
				c0-6.394,5.212-11.582,11.582-11.582h41.286c6.394,0,11.582,5.188,11.582,11.582c0,6.395-5.188,11.582-11.582,11.582H578.895
				L578.895,612z M578.895,152.427c-6.395,0-11.582-5.188-11.582-11.582c0-6.394,5.212-11.582,11.582-11.582h41.286
				c6.394,0,11.582,5.188,11.582,11.582c0,6.395-5.188,11.582-11.582,11.582H578.895L578.895,152.427z M578.895,267.308
				c-6.395,0-11.582-5.188-11.582-11.582c0-6.395,5.212-11.583,11.582-11.583h41.286c6.394,0,11.582,5.188,11.582,11.583
				c0,6.394-5.188,11.582-11.582,11.582H578.895z"/>
			<path fill="#e6e6ff" d="M76.226,84.912c-6.394,0-11.582-5.188-11.582-11.582c0-6.395,5.188-11.583,11.582-11.583h43.096
				c6.395,0,11.582,5.188,11.582,11.583c0,6.394-5.188,11.582-11.582,11.582H76.226L76.226,84.912z M76.226,679.49
				c-6.394,0-11.582-5.212-11.582-11.582c0-6.396,5.188-11.582,11.582-11.582h43.096c6.395,0,11.582,5.188,11.582,11.582
				c0,6.394-5.188,11.582-11.582,11.582H76.226L76.226,679.49z M76.226,580.776c-6.394,0-11.582-5.188-11.582-11.582
				c0-6.396,5.188-11.583,11.582-11.583h43.096c6.395,0,11.582,5.188,11.582,11.583c0,6.394-5.188,11.582-11.582,11.582H76.226
				L76.226,580.776z M76.226,482.062c-6.394,0-11.582-5.188-11.582-11.584c0-6.395,5.188-11.581,11.582-11.581h43.096
				c6.395,0,11.582,5.188,11.582,11.581c0,6.395-5.188,11.582-11.582,11.582H76.226V482.062z M76.226,383.348
				c-6.394,0-11.582-5.188-11.582-11.582c0-6.394,5.188-11.583,11.582-11.583h43.096c6.395,0,11.582,5.188,11.582,11.583
				c0,6.396-5.188,11.582-11.582,11.582H76.226L76.226,383.348z M76.226,282.365c-6.394,0-11.582-5.188-11.582-11.582
				c0-6.394,5.188-11.582,11.582-11.582h43.096c6.395,0,11.582,5.188,11.582,11.582c0,6.395-5.188,11.583-11.582,11.583
				L76.226,282.365L76.226,282.365z M76.226,183.626c-6.394,0-11.582-5.188-11.582-11.582c0-6.395,5.188-11.583,11.582-11.583
				h43.096c6.395,0,11.582,5.188,11.582,11.583c0,6.394-5.188,11.582-11.582,11.582H76.226z"/>
		</g>
	</g>
</g>
<g>
</g>
<g>
</g>
<g>
</g>
<g>
</g>
<g>
</g>
<g>
</g>
<g>
</g>
<g>
</g>
<g>
</g>
<g>
</g>
<g>
</g>
<g>
</g>
<g>
</g>
<g>
</g>
<g>
</g>
</svg>
